<mxfile host="app.diagrams.net" agent="Mozilla/5.0 (Windows NT 10.0; Win64; x64) AppleWebKit/537.36 (KHTML, like Gecko) Chrome/127.0.0.0 Safari/537.36" version="24.7.7">
  <diagram name="Page-1" id="7UJRUsOSWDM1OcJ1voMX">
    <mxGraphModel dx="1674" dy="738" grid="1" gridSize="10" guides="1" tooltips="1" connect="1" arrows="1" fold="1" page="1" pageScale="1" pageWidth="827" pageHeight="1169" math="0" shadow="0">
      <root>
        <mxCell id="0" />
        <mxCell id="1" parent="0" />
        <mxCell id="_8CJWvOeeiIuzmjO_qqE-1" value="" style="rounded=0;whiteSpace=wrap;html=1;" vertex="1" parent="1">
          <mxGeometry x="120" y="120" width="120" height="60" as="geometry" />
        </mxCell>
        <mxCell id="_8CJWvOeeiIuzmjO_qqE-9" style="edgeStyle=orthogonalEdgeStyle;rounded=0;orthogonalLoop=1;jettySize=auto;html=1;exitX=1;exitY=0.5;exitDx=0;exitDy=0;entryX=0;entryY=0;entryDx=0;entryDy=0;" edge="1" parent="1" source="_8CJWvOeeiIuzmjO_qqE-2" target="_8CJWvOeeiIuzmjO_qqE-16">
          <mxGeometry relative="1" as="geometry">
            <mxPoint x="460" y="320" as="targetPoint" />
            <Array as="points">
              <mxPoint x="360" y="210" />
              <mxPoint x="360" y="320" />
            </Array>
          </mxGeometry>
        </mxCell>
        <mxCell id="_8CJWvOeeiIuzmjO_qqE-2" value="mm" style="rounded=0;whiteSpace=wrap;html=1;" vertex="1" parent="1">
          <mxGeometry x="120" y="180" width="120" height="60" as="geometry" />
        </mxCell>
        <mxCell id="_8CJWvOeeiIuzmjO_qqE-3" value="" style="rounded=0;whiteSpace=wrap;html=1;" vertex="1" parent="1">
          <mxGeometry x="120" y="240" width="120" height="60" as="geometry" />
        </mxCell>
        <mxCell id="_8CJWvOeeiIuzmjO_qqE-4" value="&lt;font style=&quot;font-size: 14px;&quot;&gt;&lt;b&gt;task_struct&lt;/b&gt;&lt;/font&gt;&lt;div&gt;&lt;font style=&quot;font-size: 14px;&quot;&gt;&lt;b&gt;&amp;nbsp;进程结构&lt;/b&gt;&lt;/font&gt;&lt;/div&gt;" style="text;html=1;align=center;verticalAlign=middle;resizable=0;points=[];autosize=1;strokeColor=none;fillColor=none;" vertex="1" parent="1">
          <mxGeometry x="125" y="70" width="100" height="50" as="geometry" />
        </mxCell>
        <mxCell id="_8CJWvOeeiIuzmjO_qqE-10" value="" style="rounded=0;whiteSpace=wrap;html=1;" vertex="1" parent="1">
          <mxGeometry x="760" y="320" width="120" height="60" as="geometry" />
        </mxCell>
        <mxCell id="_8CJWvOeeiIuzmjO_qqE-11" value="vm_next" style="rounded=0;whiteSpace=wrap;html=1;" vertex="1" parent="1">
          <mxGeometry x="760" y="380" width="120" height="40" as="geometry" />
        </mxCell>
        <mxCell id="_8CJWvOeeiIuzmjO_qqE-28" style="edgeStyle=orthogonalEdgeStyle;rounded=0;orthogonalLoop=1;jettySize=auto;html=1;exitX=1;exitY=0.5;exitDx=0;exitDy=0;entryX=0;entryY=0;entryDx=0;entryDy=0;" edge="1" parent="1" source="_8CJWvOeeiIuzmjO_qqE-12" target="_8CJWvOeeiIuzmjO_qqE-26">
          <mxGeometry relative="1" as="geometry">
            <Array as="points">
              <mxPoint x="960" y="500" />
              <mxPoint x="960" y="520" />
            </Array>
          </mxGeometry>
        </mxCell>
        <mxCell id="_8CJWvOeeiIuzmjO_qqE-12" value="vm_op" style="rounded=0;whiteSpace=wrap;html=1;" vertex="1" parent="1">
          <mxGeometry x="760" y="480" width="120" height="40" as="geometry" />
        </mxCell>
        <mxCell id="_8CJWvOeeiIuzmjO_qqE-13" value="&lt;span style=&quot;font-size: 14px;&quot;&gt;&lt;b&gt;vm_area_struct&lt;/b&gt;&lt;/span&gt;" style="text;html=1;align=center;verticalAlign=middle;resizable=0;points=[];autosize=1;strokeColor=none;fillColor=none;" vertex="1" parent="1">
          <mxGeometry x="750" y="280" width="130" height="30" as="geometry" />
        </mxCell>
        <mxCell id="_8CJWvOeeiIuzmjO_qqE-14" value="" style="rounded=0;whiteSpace=wrap;html=1;" vertex="1" parent="1">
          <mxGeometry x="760" y="420" width="120" height="60" as="geometry" />
        </mxCell>
        <mxCell id="_8CJWvOeeiIuzmjO_qqE-15" value="" style="rounded=0;whiteSpace=wrap;html=1;" vertex="1" parent="1">
          <mxGeometry x="760" y="520" width="120" height="60" as="geometry" />
        </mxCell>
        <mxCell id="_8CJWvOeeiIuzmjO_qqE-16" value="" style="rounded=0;whiteSpace=wrap;html=1;" vertex="1" parent="1">
          <mxGeometry x="480" y="320" width="120" height="60" as="geometry" />
        </mxCell>
        <mxCell id="_8CJWvOeeiIuzmjO_qqE-31" style="edgeStyle=orthogonalEdgeStyle;rounded=0;orthogonalLoop=1;jettySize=auto;html=1;exitX=0;exitY=0.5;exitDx=0;exitDy=0;entryX=0;entryY=0;entryDx=0;entryDy=0;" edge="1" parent="1" source="_8CJWvOeeiIuzmjO_qqE-17" target="_8CJWvOeeiIuzmjO_qqE-29">
          <mxGeometry relative="1" as="geometry">
            <Array as="points">
              <mxPoint x="400" y="400" />
              <mxPoint x="400" y="720" />
            </Array>
          </mxGeometry>
        </mxCell>
        <mxCell id="_8CJWvOeeiIuzmjO_qqE-17" value="pgd" style="rounded=0;whiteSpace=wrap;html=1;" vertex="1" parent="1">
          <mxGeometry x="480" y="380" width="120" height="40" as="geometry" />
        </mxCell>
        <mxCell id="_8CJWvOeeiIuzmjO_qqE-22" style="edgeStyle=orthogonalEdgeStyle;rounded=0;orthogonalLoop=1;jettySize=auto;html=1;exitX=1;exitY=0.5;exitDx=0;exitDy=0;entryX=0;entryY=0;entryDx=0;entryDy=0;" edge="1" parent="1" source="_8CJWvOeeiIuzmjO_qqE-18" target="_8CJWvOeeiIuzmjO_qqE-10">
          <mxGeometry relative="1" as="geometry">
            <Array as="points">
              <mxPoint x="680" y="500" />
              <mxPoint x="680" y="320" />
            </Array>
          </mxGeometry>
        </mxCell>
        <mxCell id="_8CJWvOeeiIuzmjO_qqE-18" value="mm" style="rounded=0;whiteSpace=wrap;html=1;" vertex="1" parent="1">
          <mxGeometry x="480" y="480" width="120" height="40" as="geometry" />
        </mxCell>
        <mxCell id="_8CJWvOeeiIuzmjO_qqE-19" value="&lt;span style=&quot;font-size: 14px;&quot;&gt;&lt;b&gt;mm_struct&lt;/b&gt;&lt;/span&gt;&lt;div&gt;&lt;span style=&quot;font-size: 14px;&quot;&gt;&lt;b&gt;内存结构&lt;/b&gt;&lt;/span&gt;&lt;/div&gt;" style="text;html=1;align=center;verticalAlign=middle;resizable=0;points=[];autosize=1;strokeColor=none;fillColor=none;" vertex="1" parent="1">
          <mxGeometry x="485" y="270" width="100" height="50" as="geometry" />
        </mxCell>
        <mxCell id="_8CJWvOeeiIuzmjO_qqE-20" value="" style="rounded=0;whiteSpace=wrap;html=1;" vertex="1" parent="1">
          <mxGeometry x="480" y="420" width="120" height="60" as="geometry" />
        </mxCell>
        <mxCell id="_8CJWvOeeiIuzmjO_qqE-21" value="" style="rounded=0;whiteSpace=wrap;html=1;" vertex="1" parent="1">
          <mxGeometry x="480" y="520" width="120" height="60" as="geometry" />
        </mxCell>
        <mxCell id="_8CJWvOeeiIuzmjO_qqE-23" value="&lt;span style=&quot;font-size: 14px;&quot;&gt;&lt;b&gt;其他vm_area_struct&lt;/b&gt;&lt;/span&gt;" style="text;html=1;align=center;verticalAlign=middle;resizable=0;points=[];autosize=1;strokeColor=none;fillColor=none;" vertex="1" parent="1">
          <mxGeometry x="985" y="330" width="160" height="30" as="geometry" />
        </mxCell>
        <mxCell id="_8CJWvOeeiIuzmjO_qqE-24" style="edgeStyle=orthogonalEdgeStyle;rounded=0;orthogonalLoop=1;jettySize=auto;html=1;exitX=1;exitY=0.5;exitDx=0;exitDy=0;entryX=-0.016;entryY=0.483;entryDx=0;entryDy=0;entryPerimeter=0;" edge="1" parent="1" source="_8CJWvOeeiIuzmjO_qqE-11" target="_8CJWvOeeiIuzmjO_qqE-23">
          <mxGeometry relative="1" as="geometry">
            <Array as="points">
              <mxPoint x="950" y="400" />
              <mxPoint x="950" y="345" />
            </Array>
          </mxGeometry>
        </mxCell>
        <mxCell id="_8CJWvOeeiIuzmjO_qqE-26" value="" style="rounded=0;whiteSpace=wrap;html=1;" vertex="1" parent="1">
          <mxGeometry x="1010" y="520" width="120" height="60" as="geometry" />
        </mxCell>
        <mxCell id="_8CJWvOeeiIuzmjO_qqE-27" value="&lt;span style=&quot;font-size: 14px;&quot;&gt;&lt;b&gt;vm_operations_struct&lt;/b&gt;&lt;/span&gt;" style="text;html=1;align=center;verticalAlign=middle;resizable=0;points=[];autosize=1;strokeColor=none;fillColor=none;" vertex="1" parent="1">
          <mxGeometry x="980" y="480" width="170" height="30" as="geometry" />
        </mxCell>
        <mxCell id="_8CJWvOeeiIuzmjO_qqE-34" style="edgeStyle=orthogonalEdgeStyle;rounded=0;orthogonalLoop=1;jettySize=auto;html=1;exitX=1;exitY=0.25;exitDx=0;exitDy=0;entryX=0;entryY=0.5;entryDx=0;entryDy=0;" edge="1" parent="1" source="_8CJWvOeeiIuzmjO_qqE-29" target="_8CJWvOeeiIuzmjO_qqE-32">
          <mxGeometry relative="1" as="geometry" />
        </mxCell>
        <mxCell id="_8CJWvOeeiIuzmjO_qqE-35" style="edgeStyle=orthogonalEdgeStyle;rounded=0;orthogonalLoop=1;jettySize=auto;html=1;exitX=1;exitY=0.5;exitDx=0;exitDy=0;entryX=0;entryY=0.5;entryDx=0;entryDy=0;" edge="1" parent="1" source="_8CJWvOeeiIuzmjO_qqE-29" target="_8CJWvOeeiIuzmjO_qqE-33">
          <mxGeometry relative="1" as="geometry" />
        </mxCell>
        <mxCell id="_8CJWvOeeiIuzmjO_qqE-29" value="" style="rounded=0;whiteSpace=wrap;html=1;" vertex="1" parent="1">
          <mxGeometry x="485" y="720" width="120" height="60" as="geometry" />
        </mxCell>
        <mxCell id="_8CJWvOeeiIuzmjO_qqE-30" value="&lt;span style=&quot;font-size: 14px;&quot;&gt;&lt;b&gt;页目录pgd_t&lt;/b&gt;&lt;/span&gt;" style="text;html=1;align=center;verticalAlign=middle;resizable=0;points=[];autosize=1;strokeColor=none;fillColor=none;" vertex="1" parent="1">
          <mxGeometry x="490" y="680" width="100" height="30" as="geometry" />
        </mxCell>
        <mxCell id="_8CJWvOeeiIuzmjO_qqE-32" value="" style="rounded=0;whiteSpace=wrap;html=1;" vertex="1" parent="1">
          <mxGeometry x="760" y="720" width="120" height="40" as="geometry" />
        </mxCell>
        <mxCell id="_8CJWvOeeiIuzmjO_qqE-33" value="" style="rounded=0;whiteSpace=wrap;html=1;" vertex="1" parent="1">
          <mxGeometry x="760" y="780" width="120" height="40" as="geometry" />
        </mxCell>
        <mxCell id="_8CJWvOeeiIuzmjO_qqE-36" value="&lt;span style=&quot;font-size: 14px;&quot;&gt;&lt;b&gt;页面映射表pte_t&lt;/b&gt;&lt;/span&gt;" style="text;html=1;align=center;verticalAlign=middle;resizable=0;points=[];autosize=1;strokeColor=none;fillColor=none;" vertex="1" parent="1">
          <mxGeometry x="895" y="725" width="130" height="30" as="geometry" />
        </mxCell>
        <mxCell id="_8CJWvOeeiIuzmjO_qqE-37" value="&lt;span style=&quot;font-size: 14px;&quot;&gt;&lt;b&gt;页面映射表pte_t&lt;/b&gt;&lt;/span&gt;" style="text;html=1;align=center;verticalAlign=middle;resizable=0;points=[];autosize=1;strokeColor=none;fillColor=none;" vertex="1" parent="1">
          <mxGeometry x="895" y="785" width="130" height="30" as="geometry" />
        </mxCell>
      </root>
    </mxGraphModel>
  </diagram>
</mxfile>
